<svg xmlns="http://www.w3.org/2000/svg" width="300" height="300" viewBox="0 0 300 300"
     style="--icon-stroke:#000; --icon-fill:#1976d2;">
  <g fill="var(--icon-fill, none)" stroke="none">
    <path d="M75 125 H110 C120 125 120 105 135 100 H165 C180 105 180 125 190 125 H225
             A20 20 0 0 1 245 145 V222 A20 20 0 0 1 225 242 H75
             A20 20 0 0 1 55 222 V145 A20 20 0 0 1 75 125 Z"/>
    <circle cx="150" cy="185" r="48"/>
  </g>
  <g fill="none" stroke="var(--icon-stroke, currentColor)" stroke-width="12" stroke-linecap="round" stroke-linejoin="round">
    <rect x="70" y="113" width="24" height="12" rx="6" />
    <path d="M75 125 H110 C120 125 120 105 135 100 H165 C180 105 180 125 190 125 H225
             A20 20 0 0 1 245 145 V222 A20 20 0 0 1 225 242 H75
             A20 20 0 0 1 55 222 V145 A20 20 0 0 1 75 125 Z"/>
    <circle cx="150" cy="185" r="48" />
    <path d="M130 175 A28 28 0 0 1 148 157" />
    <line x1="205" y1="150" x2="225" y2="150" />
  </g>
</svg>
