<svg xmlns="http://www.w3.org/2000/svg" width="300" height="300" viewBox="0 0 300 300"
     style="--icon-stroke:#000; --icon-fill:#1976d2;">
  <g transform="rotate(45 150 150)">
    <g fill="var(--icon-fill, none)" stroke="none">
      <path d="M86.25 273.44 L63.44 250.63 L95.94 218.13 L95.94 81.25 L63.44 48.75
               L86.25 25.94 L128.44 68.13 L128.44 231.25 Z"/>
      <path d="M213.13 273.44 L170.94 231.25 L170.94 68.13 L213.13 25.94 L235.94 48.75
               L203.44 81.25 L203.44 218.13 L235.94 250.63 Z"/>
    </g>
    <g fill="none" stroke="var(--icon-stroke, currentColor)" stroke-width="12" stroke-linecap="round" stroke-linejoin="round">
      <path d="M86.25 273.44 L63.44 250.63 L95.94 218.13 L95.94 81.25 L63.44 48.75
               L86.25 25.94 L128.44 68.13 L128.44 231.25 Z"/>
      <path d="M213.13 273.44 L170.94 231.25 L170.94 68.13 L213.13 25.94 L235.94 48.75
               L203.44 81.25 L203.44 218.13 L235.94 250.63 Z"/>
    </g>
  </g>
</svg>
